<?xml version="1.0" standalone="no"?>
<!DOCTYPE svg PUBLIC "-//W3C//DTD SVG 1.1//EN" "http://www.w3.org/Graphics/SVG/1.1/DTD/svg11.dtd" >
<svg xmlns="http://www.w3.org/2000/svg">
<metadata>Generated by IcoMoon</metadata>
<defs>
<font id="icomoon" horiz-adv-x="1024">
<font-face units-per-em="1024" ascent="960" descent="-64" />
<missing-glyph horiz-adv-x="1024" />
<glyph unicode="&#x20;" horiz-adv-x="512" d="" />
<glyph unicode="&#xe900;" glyph-name="Alert" d="M512-51.2c275.251 0 499.2 223.949 499.2 499.2s-223.949 499.2-499.2 499.2c-275.25 0-499.2-223.95-499.2-499.2s223.95-499.2 499.2-499.2zM512 25.6c-233.7 0-422.4 188.698-422.4 422.4 0 233.7 188.7 422.4 422.4 422.4 233.702 0 422.4-188.7 422.4-422.4 0-233.702-188.698-422.4-422.4-422.4zM550.4 217.6v76.8h-76.8v-76.8h76.8zM550.4 371.2v307.2h-76.8v-307.2h76.8z" />
<glyph unicode="&#xe901;" glyph-name="Car" d="M0 285.865v597.335h725.335v-213.334h128c11.315 0 22.164-4.495 30.167-12.496l128-128c8.003-8.002 12.498-18.854 12.498-30.17v-213.335c0-23.562-19.103-42.665-42.665-42.665h-57.037c9.211-19.4 14.367-41.098 14.367-64 0-82.473-66.857-149.335-149.33-149.335-82.478 0-149.335 66.862-149.335 149.335 0 22.902 5.156 44.6 14.372 64h-284.743c9.215-19.4 14.371-41.098 14.371-64 0-82.473-66.859-149.335-149.334-149.335s-149.333 66.862-149.333 149.335c0 22.902 5.156 44.6 14.371 64h-99.704v42.665zM725.335 584.534v-255.998h213.33v152.992l-103.004 103.007h-110.326zM234.666 243.2c-35.346 0-64-28.652-64-64s28.654-64 64-64c35.346 0 64 28.652 64 64s-28.654 64-64 64zM725.335 179.2c0-35.348 28.652-64 64-64 35.343 0 64 28.652 64 64s-28.657 64-64 64c-35.348 0-64-28.652-64-64zM234.666 328.535h405.334v469.331h-554.666v-469.331h149.333z" />
<glyph unicode="&#xe902;" glyph-name="Contacts" d="M601.459 832c-123.375 0-224.001-100.625-224.001-224 0-76.625 39-144.623 98.002-184.998-114.502-48.751-194.002-162.5-194.002-295.002h64c0 142.874 113.123 256 256.001 256 142.874 0 256-113.126 256-256h64c0 132.501-79.501 246.251-194.001 295.002 58.999 40.375 98.001 108.373 98.001 184.998 0 123.375-100.625 224-224 224zM601.459 768c88.751 0 160-71.25 160-160s-71.249-160-160-160c-88.751 0-160 71.249-160 160s71.249 160 160 160zM347.151 677.446c20.391 0.536 40.463-4.432 57.923-14.249l28.675 51.005c-26.767 15.050-57.295 22.549-88.137 21.738s-60.917-9.905-86.815-26.357c-25.908-16.458-46.658-39.667-59.741-67.116-13.090-27.462-17.933-57.978-13.907-88.049 4.025-30.065 16.73-58.315 36.518-81.577 6.704-7.881 14.127-15.083 22.152-21.53-0.891-0.397-1.78-0.798-2.668-1.203-43.307-19.831-80.009-51.682-105.74-91.763-25.731-40.085-39.41-86.711-39.41-134.345h58.514c0 36.425 10.46 72.081 30.137 102.733s47.743 55.010 80.86 70.174c33.117 15.164 69.893 20.497 105.954 15.369s69.891-20.506 97.466-44.301l38.229 44.297c-16.678 14.396-35.11 26.432-54.771 35.878 5.227 3.938 10.223 8.188 14.959 12.736l-40.529 42.206c-14.185-13.619-32.189-23.266-52.024-27.691-19.839-4.429-40.578-3.422-59.823 2.884-19.238 6.302-36.093 17.604-48.738 32.469-12.636 14.852-20.581 32.68-23.090 51.427-2.509 18.742 0.49 37.821 8.731 55.109 8.246 17.3 21.46 32.207 38.297 42.903 16.847 10.703 36.587 16.717 56.977 17.254z" />
<glyph unicode="&#xe903;" glyph-name="Demande" d="M14.222 931.556v-248.889h41.482v-663.706h912.591v663.706h41.483v248.889h-995.556zM97.185 848.593h829.632v-82.963h-829.632v82.963zM138.667 682.667h746.667v-580.739h-746.667v580.739zM379.778 599.704c-22.847-2.107-39.699-22.523-37.593-45.371s22.523-39.699 45.371-37.593h248.889c14.905-0.162 28.843 7.616 36.46 20.579 7.452 12.963 7.452 28.843 0 41.805-7.617 12.963-21.555 20.741-36.46 20.579h-248.889c-1.296 0-2.592 0-3.889 0s-2.592 0-3.889 0z" />
<glyph unicode="&#xe904;" glyph-name="Facture" d="M128 947.2v-998.4h768v745.2l-10.798 12-230.4 230.4-12.001 10.8h-514.801zM204.8 870.4h384v-230.4h230.4v-614.4h-614.4v844.8zM665.6 815.2l98.401-98.4h-98.401v98.4zM320 563.2v-76.8h384v76.8h-384zM320 409.6v-76.8h384v76.8h-384zM320 256v-76.8h384v76.8h-384z" />
<glyph unicode="&#xe905;" glyph-name="Plus" d="M989.883 379.735h-409.6v-409.6h-136.533v409.6h-409.6v136.534h409.6v409.6h136.533v-409.6h409.6v-136.534z" />
<glyph unicode="&#xe906;" glyph-name="Signaler" d="M1024 448c0-282.77-229.23-512-512-512s-512 229.23-512 512c0 282.77 229.23 512 512 512s512-229.23 512-512z" />
<glyph unicode="&#xe907;" glyph-name="Statistique" d="M358.4 192h-102.4v358.4h102.4v-358.4zM563.2 192h-102.4v512h102.4v-512zM768 192h-102.4v204.8h102.4v-204.8zM896 84.48h-768v721.92h768v-721.92zM896 908.8h-768c-56.32 0-102.4-46.080-102.4-102.4v-716.8c0-56.32 46.080-102.4 102.4-102.4h768c56.32 0 102.4 46.080 102.4 102.4v716.8c0 56.32-46.080 102.4-102.4 102.4z" />
<glyph unicode="&#xe908;" glyph-name="TableauDeBordIcon" d="M512 869.455l-25.093-24-453.816-453.816 50.182-50.185 44.727 44.73v-403.638h314.182v349.091h139.636v-349.091h314.182v403.638l44.726-44.73 50.185 50.185-453.818 453.816-25.093 24zM512 770.182l314.182-314.182v-403.637h-174.545v349.091h-279.273v-349.091h-174.545v403.637l314.182 314.182z" />
<glyph unicode="&#xe909;" glyph-name="Vector1" d="M482.040-50.651l307.86 770.037-770.037-307.86 179.479-179.993 436.501 333.796-333.796-436.501 179.993-179.479z" />
<glyph unicode="&#xe90a;" glyph-name="Avatar" horiz-adv-x="910" d="M455.111 917.333c-164.5 0-298.667-134.167-298.667-298.667 0-102.167 52-192.833 130.667-246.665-152.667-65.001-258.667-216.667-258.667-393.335h85.333c0 190.498 150.833 341.333 341.333 341.333 190.498 0 341.333-150.835 341.333-341.333h85.333c0 176.668-106.001 328.334-258.668 393.335 78.666 53.831 130.668 144.498 130.668 246.665 0 164.5-134.167 298.667-298.667 298.667zM455.111 832c118.335 0 213.333-95 213.333-213.333s-94.999-213.333-213.333-213.333c-118.333 0-213.333 95-213.333 213.333s95 213.333 213.333 213.333z" />
<glyph unicode="&#xe90b;" glyph-name="FLECHE" d="M1002.496-31.232c0-10.745-8.711-19.456-19.456-19.456s-19.456 8.711-19.456 19.456c0 10.745 8.711 19.456 19.456 19.456s19.456-8.711 19.456-19.456zM962.56 8.704c0-10.745-8.711-19.456-19.456-19.456s-19.456 8.711-19.456 19.456c0 10.745 8.711 19.456 19.456 19.456s19.456-8.711 19.456-19.456zM922.624 48.64c0-10.745-8.711-19.456-19.456-19.456s-19.456 8.711-19.456 19.456c0 10.745 8.711 19.456 19.456 19.456s19.456-8.711 19.456-19.456zM882.688 87.552c0-10.745-8.711-19.456-19.456-19.456s-19.456 8.711-19.456 19.456c0 10.745 8.711 19.456 19.456 19.456s19.456-8.711 19.456-19.456zM843.776 127.488c0-10.745-8.711-19.456-19.456-19.456s-19.456 8.711-19.456 19.456c0 10.745 8.711 19.456 19.456 19.456s19.456-8.711 19.456-19.456zM756.736 214.528c0-10.745-8.711-19.456-19.456-19.456s-19.456 8.711-19.456 19.456c0 10.745 8.711 19.456 19.456 19.456s19.456-8.711 19.456-19.456zM716.8 254.464c0-10.745-8.711-19.456-19.456-19.456s-19.456 8.711-19.456 19.456c0 10.745 8.711 19.456 19.456 19.456s19.456-8.711 19.456-19.456zM676.864 294.4c0-10.745-8.711-19.456-19.456-19.456s-19.456 8.711-19.456 19.456c0 10.745 8.711 19.456 19.456 19.456s19.456-8.711 19.456-19.456zM636.928 333.312c0-10.745-8.711-19.456-19.456-19.456s-19.456 8.711-19.456 19.456c0 10.745 8.711 19.456 19.456 19.456s19.456-8.711 19.456-19.456zM598.016 373.248c0-10.745-8.711-19.456-19.456-19.456s-19.456 8.711-19.456 19.456c0 10.745 8.711 19.456 19.456 19.456s19.456-8.711 19.456-19.456zM506.88 463.36c0-10.745-8.711-19.456-19.456-19.456s-19.456 8.711-19.456 19.456c0 10.745 8.711 19.456 19.456 19.456s19.456-8.711 19.456-19.456zM467.968 503.296c0-10.745-8.711-19.456-19.456-19.456s-19.456 8.711-19.456 19.456c0 10.745 8.711 19.456 19.456 19.456s19.456-8.711 19.456-19.456zM428.032 543.232c0-10.745-8.711-19.456-19.456-19.456s-19.456 8.711-19.456 19.456c0 10.745 8.711 19.456 19.456 19.456s19.456-8.711 19.456-19.456zM388.096 582.144c0-10.745-8.711-19.456-19.456-19.456s-19.456 8.711-19.456 19.456c0 10.745 8.711 19.456 19.456 19.456s19.456-8.711 19.456-19.456zM348.16 622.080c0-10.745-8.711-19.456-19.456-19.456s-19.456 8.711-19.456 19.456c0 10.745 8.711 19.456 19.456 19.456s19.456-8.711 19.456-19.456zM265.216 707.072c0-10.745-8.711-19.456-19.456-19.456s-19.456 8.711-19.456 19.456c0 10.745 8.711 19.456 19.456 19.456s19.456-8.711 19.456-19.456zM225.28 745.984c0-10.745-8.711-19.456-19.456-19.456s-19.456 8.711-19.456 19.456c0 10.745 8.711 19.456 19.456 19.456s19.456-8.711 19.456-19.456zM186.368 785.92c0-10.745-8.711-19.456-19.456-19.456s-19.456 8.711-19.456 19.456c0 10.745 8.711 19.456 19.456 19.456s19.456-8.711 19.456-19.456zM146.432 825.856c0-10.745-8.711-19.456-19.456-19.456s-19.456 8.711-19.456 19.456c0 10.745 8.711 19.456 19.456 19.456s19.456-8.711 19.456-19.456zM106.496 865.792c0-10.745-8.711-19.456-19.456-19.456s-19.456 8.711-19.456 19.456c0 10.745 8.711 19.456 19.456 19.456s19.456-8.711 19.456-19.456zM813.056 168.448l-35.84-29.696c-6.144-5.12-16.384 0-15.36 8.192v35.84c0 5.12 5.12 9.216 10.24 8.192l35.84-6.144c8.192-1.024 11.264-11.264 5.12-16.384zM567.296 417.28l-35.84-30.72c-6.144-5.12-16.384 0-15.36 8.192v35.84c0 5.12 5.12 9.216 10.24 8.192l35.84-6.144c8.192 0 11.264-10.24 5.12-15.36zM320.512 660.992l-35.84-29.696c-6.144-5.12-16.384 0-15.36 8.192v35.84c0 5.12 5.12 9.216 10.24 8.192l35.84-6.144c8.192-1.024 11.264-11.264 5.12-16.384zM77.824 903.68l-35.84-30.72c-6.144-5.12-15.36 0-15.36 8.192v35.84c0 5.12 5.12 9.216 10.24 8.192l35.84-6.144c8.192 0 11.264-10.24 5.12-15.36z" />
<glyph unicode="&#xe90c;" glyph-name="File" horiz-adv-x="922" d="M60.869 924.706c14.403 14.403 33.937 22.494 54.306 22.494h460.835c10.189 0 19.953-4.046 27.156-11.247l268.8-268.8c7.199-7.201 11.244-16.969 11.244-27.153v-614.4c0-10.086-1.987-20.070-5.842-29.389-3.86-9.318-9.518-17.787-16.65-24.919s-15.596-12.785-24.914-16.645c-9.318-3.86-19.308-5.847-29.394-5.847h-691.235c-20.368 0-39.903 8.090-54.306 22.492s-22.494 33.94-22.494 54.308v844.8c0 20.368 8.091 39.903 22.494 54.306zM560.108 870.4h-444.933v-844.8h691.235v598.494l-246.303 246.306zM576 947.2c21.207 0 38.4-17.192 38.4-38.4v-230.4h230.436c21.212 0 38.4-17.192 38.4-38.4s-17.188-38.4-38.4-38.4h-268.836c-21.207 0-38.4 17.192-38.4 38.4v268.8c0 21.208 17.193 38.4 38.4 38.4z" />
<glyph unicode="&#xe90d;" glyph-name="Sort" horiz-adv-x="1365" d="M160.427 835.958l522.24-521.102 522.24 521.102 160.427-160.427-682.667-682.667-682.667 682.667 160.427 160.427z" />
<glyph unicode="&#xe90e;" glyph-name="Valid" horiz-adv-x="1229" d="M409.61 163.332l-284.672 284.672-96.938-96.256 381.61-381.61 819.2 819.2-96.256 96.256-722.944-722.262z" />
<glyph unicode="&#xe90f;" glyph-name="SortTop" horiz-adv-x="1365" d="M1211.733-12.8l-529.067 529.067-529.067-529.067-153.6 153.6 682.667 682.667 682.667-682.667-153.6-153.6z" />
<glyph unicode="&#xe910;" glyph-name="CloseIcon" d="M1024 856.869l-103.131 103.131-408.869-408.869-408.869 408.869-103.131-103.131 408.869-408.869-408.869-408.869 103.131-103.131 408.869 408.869 408.869-408.869 103.131 103.131-408.869 408.869 408.869 408.869z" />
<glyph unicode="&#xe911;" glyph-name="Pin" horiz-adv-x="717" d="M358.4 960c-198.144 0-358.4-160.256-358.4-358.4 0-268.8 358.4-665.6 358.4-665.6s358.4 396.8 358.4 665.6c0 198.144-160.256 358.4-358.4 358.4zM358.4 473.6c-70.656 0-128 57.344-128 128s57.344 128 128 128c70.656 0 128-57.344 128-128s-57.344-128-128-128z" />
<glyph unicode="&#xe912;" glyph-name="reloade" horiz-adv-x="768" d="M383.99 704.003v-128l170.666 170.667-170.666 170.666v-128c-188.587 0-341.334-152.746-341.334-341.333 0-66.987 19.627-129.283 52.907-181.763l62.293 62.296c-19.2 35.414-29.866 76.374-29.866 119.467 0 141.227 114.773 256 256 256zM672.416 629.763l-62.293-62.293c18.773-35.84 29.867-76.374 29.867-119.467 0-141.225-114.774-256.003-256-256.003v128.003l-170.667-170.665 170.667-170.669v128c188.586 0 341.335 152.749 341.335 341.334 0 66.987-19.629 129.28-52.909 181.76z" />
<glyph unicode="&#xe913;" glyph-name="EnCours" horiz-adv-x="1126" d="M665.6 908.8c-254.464 0-460.8-206.336-460.8-460.8h-153.6l199.168-199.168 3.584-7.168 206.848 206.336h-153.6c0 198.144 160.256 358.4 358.4 358.4s358.4-160.256 358.4-358.4c0-198.144-160.256-358.4-358.4-358.4-98.816 0-188.416 40.448-252.928 105.472l-72.704-72.704c83.456-83.456 198.144-135.168 325.632-135.168 254.464 0 460.8 206.336 460.8 460.8s-206.336 460.8-460.8 460.8zM614.4 652.8v-256l219.136-130.048 36.864 61.952-179.2 106.496v217.6h-76.8z" />
<glyph unicode="&#xe914;" glyph-name="FlecheSuivi" horiz-adv-x="2048" d="M1537.28 575.969h-1537.28v-256h1537.28v-384l510.72 512-510.72 511.999v-383.999z" />
<glyph unicode="&#xe915;" glyph-name="Entreprise" horiz-adv-x="1195" d="M597.305 732.444v227.556h-568.888v-1024h1137.774v796.444h-568.886zM255.972 49.775h-113.777v113.781h113.777v-113.781zM255.972 277.333h-113.777v113.777h113.777v-113.777zM255.972 504.889h-113.777v113.777h113.777v-113.777zM255.972 732.444h-113.777v113.778h113.777v-113.778zM483.528 49.775h-113.777v113.781h113.777v-113.781zM483.528 277.333h-113.777v113.777h113.777v-113.777zM483.528 504.889h-113.777v113.777h113.777v-113.777zM483.528 732.444h-113.777v113.778h113.777v-113.778zM1052.416 49.775h-455.111v113.781h113.778v113.777h-113.778v113.777h113.778v113.778h-113.778v113.777h455.111v-568.892zM938.641 504.889h-113.78v-113.778h113.78v113.778zM938.641 277.333h-113.78v-113.777h113.78v113.777z" />
<glyph unicode="&#xe916;" d="M1024 448c0-282.77-229.23-512-512-512s-512 229.23-512 512c0 282.77 229.23 512 512 512s512-229.23 512-512z" />
<glyph unicode="&#xe917;" d="M129.024 222.72c6.144 16.384 16.384 38.912 32.768 61.44 96.256 135.168 299.008 133.12 358.4 133.12 55.296 0 221.184-4.096 333.824-120.832 18.432-20.48 32.768-38.912 40.96-53.248-16.384-36.864-59.392-112.64-147.456-169.984-94.208-59.392-184.32-61.44-227.328-61.44-98.304 0-169.984 28.672-192.512 38.912-112.64 49.152-174.080 133.12-198.656 172.032z" />
<glyph unicode="&#xe918;" d="M704.512 722.432c0-105.19-85.274-190.464-190.464-190.464s-190.464 85.274-190.464 190.464c0 105.19 85.274 190.464 190.464 190.464s190.464-85.274 190.464-190.464z" />
<glyph unicode="&#xe919;" glyph-name="Euro" d="M665.6 115.2c-128.512 0-239.616 72.704-294.912 179.2h294.912v102.4h-328.704c-2.56 16.896-4.096 33.792-4.096 51.2s1.536 34.304 4.096 51.2h328.704v102.4h-294.912c55.296 106.496 166.912 179.2 294.912 179.2 82.432 0 158.208-30.208 216.576-80.384l90.624 90.624c-81.408 73.216-189.44 117.76-307.2 117.76-200.704 0-370.688-128.512-434.176-307.2h-180.224v-102.4h156.672c-2.048-16.896-3.072-33.792-3.072-51.2s1.024-34.304 3.072-51.2h-156.672v-102.4h180.224c63.488-178.688 233.472-307.2 434.176-307.2 118.272 0 225.792 44.544 307.2 117.76l-91.136 90.624c-57.856-50.176-133.12-80.384-216.064-80.384z" />
<glyph unicode="&#xe91a;" glyph-name="Folder" d="M870.4 908.8h-716.8c-56.32 0-102.4-46.080-102.4-102.4v-358.4c0-56.32 46.080-102.4 102.4-102.4h716.8c56.32 0 102.4 46.080 102.4 102.4v358.4c0 56.32-46.080 102.4-102.4 102.4zM870.4 601.6h-204.8c0-82.944-70.656-153.6-153.6-153.6s-153.6 70.656-153.6 153.6h-204.8v204.8h716.8v-204.8zM665.6 243.2h307.2v-153.6c0-56.32-46.080-102.4-102.4-102.4h-716.8c-56.32 0-102.4 46.080-102.4 102.4v153.6h307.2c0-84.992 68.608-153.6 153.6-153.6s153.6 68.608 153.6 153.6z" />
<glyph unicode="&#xe91b;" glyph-name="Import" d="M910.222 448v-398.222h-796.444v398.222h-113.778v-398.222c0-62.578 51.2-113.778 113.778-113.778h796.444c62.578 0 113.778 51.2 113.778 113.778v398.222h-113.778zM568.889 409.884l147.342 146.773 80.213-80.213-284.444-284.444-284.444 284.444 80.213 80.213 147.342-146.773v550.116h113.778v-550.116z" />
<glyph unicode="&#xe91c;" glyph-name="Message" d="M921.6 857.604h-819.2c-56.32 0-101.888-46.080-101.888-102.4l-0.512-614.4c0-56.32 46.080-102.4 102.4-102.4h819.2c56.32 0 102.4 46.080 102.4 102.4v614.4c0 56.32-46.080 102.4-102.4 102.4zM921.6 140.804h-819.2v512l409.6-256 409.6 256v-512zM512 499.204l-409.6 256h819.2l-409.6-256z" />
<glyph unicode="&#xe91d;" glyph-name="FolderFacture" horiz-adv-x="878" d="M146.274 935.613c-53.639 0-97.036-43.886-97.036-97.524l-0.488-780.189c0-53.636 43.398-97.521 97.036-97.521h585.631c53.64 0 97.526 43.886 97.526 97.521v585.142l-292.574 292.571h-390.095zM487.607 594.28v268.191l268.193-268.191h-268.193z" />
<glyph unicode="&#xe91e;" glyph-name="Download" horiz-adv-x="853" d="M824.882 618.667h-227.556v341.333h-341.333v-341.333h-227.556l398.222-398.223 398.223 398.223zM28.438 106.667v-113.775h796.445v113.775h-796.445z" />
<glyph unicode="&#xe91f;" glyph-name="Search" d="M711.111 334.223h-44.942l-15.929 15.36c55.751 64.853 89.316 149.048 89.316 240.64 0 204.231-165.547 369.777-369.778 369.777s-369.777-165.547-369.777-369.777c0-204.232 165.547-369.778 369.777-369.778 91.592 0 175.787 33.565 240.64 89.316l15.36-15.929v-44.942l284.448-283.876 84.762 84.762-283.876 284.448zM369.777 334.223c-141.653 0-256 114.347-256 256s114.347 256 256 256c141.653 0 256-114.347 256-256s-114.347-256-256-256z" />
<glyph unicode="&#xe920;" glyph-name="Document" d="M948.147 884.148v-872.295h-872.295v872.295h872.295zM972.8 960h-921.6c-28.444 0-51.2-22.756-51.2-51.2v-921.6c0-22.753 22.756-51.2 51.2-51.2h921.6c22.753 0 51.2 28.447 51.2 51.2v921.6c0 28.444-28.447 51.2-51.2 51.2zM455.111 732.445h341.336v-113.778h-341.336v113.778zM455.111 504.889h341.336v-113.777h-341.336v113.777zM455.111 277.335h341.336v-113.782h-341.336v113.782zM227.555 732.445h113.778v-113.778h-113.778v113.778zM227.555 504.889h113.778v-113.777h-113.778v113.777zM227.555 277.335h113.778v-113.782h-113.778v113.782z" />
<glyph unicode="&#xe921;" glyph-name="Confidentiality" d="M810.667 618.666v42.666c0 164.652-133.973 298.668-298.667 298.668s-298.666-134.016-298.666-298.666v-42.666c-70.57 0-128-57.43-128-128v-426.668c0-70.571 57.43-128 128-128h597.333c70.571 0 128 57.429 128 128v426.666c0 70.572-57.429 128-128 128zM298.666 661.334c0 117.632 95.702 213.334 213.334 213.334 117.63 0 213.334-95.702 213.334-213.334v-42.666h-426.668v42.666zM853.333 64c0-23.552-19.16-42.667-42.667-42.667h-597.333c-23.51 0-42.666 19.115-42.666 42.667v426.666c0 23.552 19.158 42.666 42.666 42.666h597.333c23.512 0 42.667-19.114 42.667-42.666v-426.666zM512 469.333c-70.57 0-128-57.43-128-128 0-55.552 35.798-102.485 85.334-120.149v-71.851c0-23.592 19.114-42.667 42.666-42.667s42.666 19.075 42.666 42.667v71.851c49.534 17.664 85.334 64.597 85.334 120.149 0 70.57-57.429 128-128 128zM512 298.667c-23.51 0-42.666 19.115-42.666 42.667s19.156 42.667 42.666 42.667c23.51 0 42.666-19.115 42.666-42.667s-19.156-42.667-42.666-42.667z" />
<glyph unicode="&#xe922;" glyph-name="CGU" d="M963.999 718v60h-367.161c-9.051 25.528-29.31 45.786-54.839 54.84v127.16h-60v-127.16c-25.528-9.054-45.786-29.312-54.84-54.84h-367.16v-60h75l-135-324v-6.001c0-82.711 67.29-149.999 150-149.999h60c82.71 0 150 67.288 150 149.999v6.001l-135 324h202.16c9.054-25.528 29.312-45.786 54.84-54.84v-430.177c-59.534-12.134-106.318-59.654-117.44-119.546-69.644-12.931-122.56-74.098-122.56-147.439v-29.998h540v29.998c0 73.341-52.912 134.508-122.556 147.445-11.127 59.893-57.913 107.406-117.445 119.541v430.177c25.528 9.054 45.788 29.312 54.839 54.84h202.16l-134.997-324v-6.001c0-82.711 67.288-149.999 149.999-149.999h60.001c82.711 0 149.999 67.288 149.999 149.999v6.001l-134.997 324h74.997zM180 670l105-252h-210l105 252zM210 298.001h-60c-39.108 0-72.456 25.082-84.84 60.018h229.68c-12.384-34.935-45.732-60.018-84.84-60.018zM843.998 670l105-252h-210l105 252zM874.001 298.001h-60.001c-39.111 0-72.454 25.082-84.838 60.018h229.678c-12.385-34.935-45.733-60.018-84.838-60.018zM716.863-3.999h-409.722c12.382 34.924 45.748 60.001 84.859 60.001h240.002c39.111 0 72.476-25.077 84.861-60.001zM596.838 116.002h-169.679c12.384 34.918 45.732 60.001 84.842 60.001 39.108 0 72.451-25.082 84.836-60.001zM512 718c-16.542 0-30 13.458-30 30s13.458 30 30 30c16.542 0 30-13.458 30-30s-13.458-30-30-30z" />
<glyph unicode="&#xe923;" glyph-name="Contact" horiz-adv-x="1293" d="M53.895 636.632h107.789c29.765 0 53.895 24.129 53.895 53.895s-24.129 53.895-53.895 53.895h-107.789c-29.765 0-53.895-24.129-53.895-53.895s24.129-53.895 53.895-53.895zM53.895 421.053h107.789c29.765 0 53.895 24.129 53.895 53.895s-24.129 53.895-53.895 53.895h-107.789c-29.765 0-53.895-24.129-53.895-53.895s24.129-53.895 53.895-53.895zM53.895 151.579h107.789c29.765 0 53.895 24.129 53.895 53.895s-24.129 53.895-53.895 53.895h-107.789c-29.765 0-53.895-24.129-53.895-53.895s24.129-53.895 53.895-53.895z" />
<glyph unicode="&#xe926;" glyph-name="Edit" d="M128 224.005v-160h160l471.895 471.894-160 160-471.895-471.894zM883.625 659.633c16.64 16.64 16.64 43.52 0 60.16l-99.84 99.84c-16.64 16.64-43.52 16.64-60.16 0l-78.080-78.080 160-160 78.080 78.080z" />
<glyph unicode="&#xe927;" glyph-name="Camera" d="M128 789.333v128h85.333v-128h128v-85.333h-128v-128h-85.333v128h-128v85.333h128zM256 533.333v128h128v128h298.667l78.080-85.333h135.253c46.933 0 85.333-38.4 85.333-85.333v-512c0-46.933-38.4-85.333-85.333-85.333h-682.667c-46.933 0-85.333 38.4-85.333 85.333v426.667h128zM554.667 149.333c117.76 0 213.333 95.573 213.333 213.333s-95.573 213.333-213.333 213.333c-117.76 0-213.333-95.573-213.333-213.333s95.573-213.333 213.333-213.333zM418.133 362.667c0-75.52 61.013-136.533 136.533-136.533s136.533 61.013 136.533 136.533c0 75.52-61.013 136.533-136.533 136.533s-136.533-61.013-136.533-136.533z" />
<glyph unicode="&#xe928;" glyph-name="Reclamation" d="M512 874.667c-235.52 0-426.667-191.147-426.667-426.667s191.147-426.667 426.667-426.667c235.52 0 426.667 191.147 426.667 426.667s-191.147 426.667-426.667 426.667zM554.667 234.667h-85.333v85.333h85.333v-85.333zM554.667 405.333h-85.333v256h85.333v-256z" />
<glyph unicode="&#xe929;" glyph-name="FileUpload" horiz-adv-x="922" d="M60.857 924.706c14.403 14.403 33.937 22.494 54.306 22.494h460.837c10.184 0 19.953-4.046 27.151-11.247l268.8-268.8c7.204-7.201 11.249-16.969 11.249-27.153v-614.4c0-10.086-1.987-20.070-5.847-29.389s-9.513-17.787-16.645-24.919c-7.132-7.132-15.601-12.785-24.919-16.645s-19.302-5.847-29.389-5.847h-691.237c-20.369 0-39.903 8.090-54.306 22.492s-22.494 33.94-22.494 54.308v844.8c0 20.368 8.091 39.903 22.494 54.306zM560.092 870.4h-444.93v-844.8h691.237v598.494l-246.308 246.306zM576 947.2c21.207 0 38.4-17.192 38.4-38.4v-230.4h230.436c21.212 0 38.4-17.192 38.4-38.4s-17.188-38.4-38.4-38.4h-268.836c-21.207 0-38.4 17.192-38.4 38.4v268.8c0 21.208 17.193 38.4 38.4 38.4zM299.247 340.751c14.996 14.996 39.31 14.996 54.306 0l107.247-107.244 107.249 107.244c14.996 14.996 39.306 14.996 54.303 0s14.996-39.306 0-54.303l-134.398-134.4c-14.996-14.996-39.31-14.996-54.306 0l-134.4 134.4c-14.996 14.996-14.996 39.306 0 54.303zM460.8 524.8c21.208 0 38.4-17.192 38.4-38.4v-307.2c0-21.207-17.192-38.4-38.4-38.4s-38.4 17.193-38.4 38.4v307.2c0 21.208 17.192 38.4 38.4 38.4z" />
<glyph unicode="&#xe92a;" glyph-name="Calender" horiz-adv-x="945" d="M0 802.462c0 43.503 35.266 78.769 78.769 78.769h787.692c43.504 0 78.769-35.267 78.769-78.769v-787.692c0-43.504-35.265-78.769-78.769-78.769h-787.692c-43.503 0-78.769 35.265-78.769 78.769v787.692zM866.462 802.462h-787.692v-787.692h787.692v787.692zM708.923 960c21.751 0 39.385-17.633 39.385-39.385v-157.538c0-21.751-17.633-39.385-39.385-39.385s-39.385 17.633-39.385 39.385v157.538c0 21.751 17.633 39.385 39.385 39.385zM236.308 960c21.751 0 39.385-17.633 39.385-39.385v-157.538c0-21.751-17.633-39.385-39.385-39.385s-39.385 17.633-39.385 39.385v157.538c0 21.751 17.633 39.385 39.385 39.385zM0 605.538c0 21.751 17.633 39.385 39.385 39.385h866.462c21.748 0 39.385-17.633 39.385-39.385s-17.636-39.385-39.385-39.385h-866.462c-21.751 0-39.385 17.633-39.385 39.385z" />
</font>
</defs>
</svg>
